{"title":"Cross Ange 10 Vostfr FHD","uid":11659716,"size":944753722,"categoryP":"video","categoryS":"hd___tv_shows","magnet":"?xt=urn:btih:f3709c82e6dd1be0960231794787fbfab3d6408e&amp;dn=Cross+Ange+10+Vostfr+FHD&amp;tr=udp%3A%2F%2Ftracker.openbittorrent.com%3A80&amp;tr=udp%3A%2F%2Fopen.demonii.com%3A1337&amp;tr=udp%3A%2F%2Ftracker.coppersurfer.tk%3A6969&amp;tr=udp%3A%2F%2Fexodus.desync.com%3A6969","seeders":5,"leechers":0,"uploader":"klaxx59","files":-1,"time":1417979465,"description":"General\n\nFormat                                   : MPEG-4\nFormat profile                           : Base Media\nCodec ID                                 : isom\nFile size                                : 901 MiB\nDuration                                 : 23mn 59s\nOverall bit rate mode                    : Variable\nOverall bit rate                         : 5 249 Kbps\nEncoded date                             : UTC 2014-12-06 20:43:45\nTagged date                              : UTC 2014-12-06 20:43:45\n\nVideo\nID                                       : 1\nFormat                                   : AVC\nFormat/Info                              : Advanced Video Codec\nFormat profile                           : &lt;a class=&quot;__cf_email__&quot; href=&quot;/cdn-cgi/l/email-protection&quot; data-cfemail=&quot;9dd5f4faf5ddd1a9b3ac&quot;&gt;[email&amp;#160;protected]&lt;/a&gt;&lt;script cf-hash='f9e31' type=&quot;text/javascript&quot;&gt;\n/* &lt;![CDATA[ */!function(){try{var t=&quot;currentScript&quot;in document?document.currentScript:function(){for(var t=document.getElementsByTagName(&quot;script&quot;),e=t.length;e--;)if(t[e].getAttribute(&quot;cf-hash&quot;))return t[e]}();if(t&amp;&amp;t.previousSibling){var e,r,n,i,c=t.previousSibling,a=c.getAttribute(&quot;data-cfemail&quot;);if(a){for(e=&quot;&quot;,r=parseInt(a.substr(0,2),16),n=2;a.length-n;n+=2)i=parseInt(a.substr(n,2),16)^r,e+=String.fromCharCode(i);e=document.createTextNode(e),c.parentNode.replaceChild(e,c)}}}catch(u){}}();/* ]]&gt; */&lt;/script&gt;\nFormat settings, CABAC                   : Yes\nFormat settings, ReFrames                : 4 frames\nCodec ID                                 : avc1\nCodec ID/Info                            : Advanced Video Coding\nDuration                                 : 23mn 59s\nBit rate                                 : 5 000 Kbps\nMaximum bit rate                         : 17.5 Mbps\nWidth                                    : 1 920 pixels\nHeight                                   : 1 080 pixels\nDisplay aspect ratio                     : 16:9\nFrame rate mode                          : Constant\nFrame rate                               : 23.976 fps\nColor space                              : YUV\nChroma subsampling                       : 4:2:0\nBit depth                                : 8 bits\nScan type                                : Progressive\nBits/(Pixel*Frame)                       : 0.101\nStream size                              : 873 MiB (97%)\nWriting library                          : x264 core 142 r2453kMod ea0ca51\nEncoding settings                        : cabac=1 / ref=4 / deblock=1:1:1 / analyse=0x3:0x133 / me=umh / subme=10 / psy=1 / fade_compensate=0.00 / psy_rd=1.00:0.00 / mixed_ref=1 / me_range=24 / chroma_me=1 / trellis=2 / 8x8dct=1 / cqm=0 / deadzone=21,11 / fast_pskip=1 / chroma_qp_offset=-2 / threads=12 / lookahead_threads=3 / sliced_threads=0 / nr=0 / decimate=1 / interlaced=0 / bluray_compat=0 / constrained_intra=0 / fgo=0 / bframes=10 / b_pyramid=2 / b_adapt=2 / b_bias=0 / direct=3 / weightb=1 / open_gop=0 / weightp=2 / keyint=240 / keyint_min=23 / scenecut=40 / intra_refresh=0 / rc_lookahead=60 / rc=abr / mbtree=1 / bitrate=5000 / ratetol=4.0 / qcomp=0.60 / qpmin=0 / qpmax=69 / qpstep=4 / vbv_maxrate=12000 / vbv_bufsize=8000 / nal_hrd=none / filler=0 / ip_ratio=1.40 / aq=1:1.10\nEncoded date                             : UTC 2014-12-06 20:43:45\nTagged date                              : UTC 2014-12-06 20:44:09\n\nAudio\nID                                       : 2\nFormat                                   : AAC\nFormat/Info                              : Advanced Audio Codec\nFormat profile                           : LC\nCodec ID                                 : 40\nDuration                                 : 23mn 59s\nBit rate mode                            : Variable\nBit rate                                 : 157 Kbps\nMaximum bit rate                         : 166 Kbps\nChannel(s)                               : 2 channels\nChannel positions                        : Front: L R\nSampling rate                            : 48.0 KHz\nCompression mode                         : Lossy\nStream size                              : 26.9 MiB (3%)\nEncoded date                             : UTC 2014-12-06 20:44:06\nTagged date                              : UTC 2014-12-06 20:44:09","torrent":{"xt":"urn:btih:f3709c82e6dd1be0960231794787fbfab3d6408e","amp;dn":"Cross+Ange+10+Vostfr+FHD","amp;tr":["udp%3A%2F%2Ftracker.openbittorrent.com%3A80","udp%3A%2F%2Fopen.demonii.com%3A1337","udp%3A%2F%2Ftracker.coppersurfer.tk%3A6969","udp%3A%2F%2Fexodus.desync.com%3A6969"],"infoHash":"f3709c82e6dd1be0960231794787fbfab3d6408e","infoHashBuffer":{"type":"Buffer","data":[243,112,156,130,230,221,27,224,150,2,49,121,71,135,251,250,179,214,64,142]},"announce":[],"urlList":[]}}